<svg width="818" height="182" viewBox="0 0 818 182" fill="none" xmlns="http://www.w3.org/2000/svg">
<path d="M744.9 0.899993H740.5L679.6 152.5L643.4 97.5V97.3C701.5 97.3 707.8 0.699994 626.7 0.699994H564.4H562.3V14.8C548.4 5.89999 531.9 0.799993 514.2 0.799993C489.6 0.799993 467 10.8 450.9 27.4C449.9 28.4 448.9 29.5 447.9 30.6C433.1 12.8 410.5 0.899993 380 0.899993H319.1C319.1 57.5 319.1 114 319.1 170.6L250.9 0.899993H246.5L201.7 111.5C179.6 71.3 91.6 109.4 87.3 51.7C86.5 41.9 88.8 32.5 95.3 24.7C106.1 10.8 125.5 4.69999 142.5 4.49999C158.8 4.19999 176.6 9 187.7 20.7C192.9 26.3 196 32.6 197.5 39.9L197.8 41.9L201.7 41.1L201.4 39.1C196.4 12.9 169.3 0.199994 142.2 0.699994C113.7 0.699994 0.699976 0.699994 0.699976 0.699994V4.49999H39.1V177.4H0.599976V181.3C26.3 181.3 110.7 181.3 140.6 181.3C141.5 181.3 142.4 181.4 143.3 181.4C177.6 181.4 213.7 159.2 205.5 121.8C205.4 121.4 205.3 121.1 205.2 120.7H294.3L319.1 181.3H319.2H323.5H380C410.5 181.3 433.1 169.4 447.9 151.6C448.9 152.7 449.9 153.7 450.9 154.8C467 171.3 489.6 181.4 514.2 181.4C539.1 181.4 561.4 171.4 577.8 154.8C593.9 138.5 604.2 115.9 604.2 91.1C604.2 66.3 593.9 43.7 577.8 27.4C574.2 23.8 570.3 20.4 566.2 17.5V4.69999H626.7C700.6 4.69999 698.4 94 639.5 94H638.5V97.4L693.7 181.3H698.6L682.3 156.6L696.9 120.5H788.2L813 181.1H817.4L744.9 0.899993ZM143.5 177.5C119 177.5 88.8 164.1 86 137.6L85.7 135.8L81.6 136.3L81.9 138.1C84.1 158.1 100.4 171.3 119.1 177.4H42.9V4.49999H118.9C108.1 7.99999 98.5 14 91.9 22.4C85.2 31 82.4 41.4 83.4 52C88 117.9 190 69.9 201.6 122.4C209.1 157.5 175 177.5 143.5 177.5ZM204.7 116.7L248.6 6.29999L292.7 116.7H204.7ZM380 177.4H323C323 121.4 323 60.8 323 4.79999H380C409.4 4.79999 431.1 16.4 445.3 33.6C432.5 49.2 424.5 69.3 424.5 91C424.5 112.8 432.5 132.9 445.3 148.5C431.2 165.7 409.4 177.4 380 177.4ZM447.9 145.2C435.9 130.4 428.6 111.7 428.6 91C428.6 70.4 436 51.6 447.9 36.8C470.6 67.8 470.6 114.3 447.9 145.2ZM562.3 162.3C548.5 171.7 531.9 177.2 514.2 177.2C490.6 177.2 469.2 167.4 453.7 151.6C452.6 150.5 451.5 149.4 450.5 148.2C475 115.7 475 66.2 450.5 33.7C451.5 32.5 452.6 31.4 453.7 30.3C469.3 14.5 490.6 4.69999 514.2 4.69999C531.9 4.69999 548.5 10.2 562.3 19.6V162.3ZM575 30.4C590.3 45.9 599.9 67.3 599.9 91.1C599.9 114.9 590.4 136.2 575 151.8C572.2 154.6 569.3 157.2 566.2 159.6V22.6C569.3 25 572.3 27.6 575 30.4ZM698.7 116.7L742.6 6.29999L786.7 116.7H698.7Z" fill="white"/>
</svg>
