<svg width="292" height="38" viewBox="0 0 292 38" fill="none" xmlns="http://www.w3.org/2000/svg">
<path d="M72.072 30.32C70.344 30.32 68.8613 30 67.624 29.36C66.408 28.72 65.4693 27.7387 64.808 26.416C64.1467 25.0933 63.816 23.3973 63.816 21.328V8.336C63.816 8.10133 63.88 7.92 64.008 7.792C64.136 7.664 64.3067 7.6 64.52 7.6H65.096C65.3307 7.6 65.512 7.664 65.64 7.792C65.768 7.92 65.832 8.10133 65.832 8.336V21.424C65.832 23.8133 66.3867 25.5733 67.496 26.704C68.6267 27.8347 70.152 28.4 72.072 28.4C73.9707 28.4 75.4747 27.8347 76.584 26.704C77.7147 25.5733 78.28 23.8133 78.28 21.424V8.336C78.28 8.10133 78.344 7.92 78.472 7.792C78.6213 7.664 78.8027 7.6 79.016 7.6H79.592C79.8053 7.6 79.976 7.664 80.104 7.792C80.232 7.92 80.296 8.10133 80.296 8.336V21.328C80.296 23.3973 79.9653 25.0933 79.304 26.416C78.664 27.7387 77.736 28.72 76.52 29.36C75.304 30 73.8213 30.32 72.072 30.32ZM92.853 30.32C91.125 30.32 89.653 30.0427 88.437 29.488C87.2423 28.9333 86.325 28.2187 85.685 27.344C85.045 26.4693 84.7037 25.5413 84.661 24.56C84.661 24.3893 84.725 24.24 84.853 24.112C84.981 23.984 85.141 23.92 85.333 23.92H85.973C86.1863 23.92 86.3463 23.984 86.453 24.112C86.581 24.24 86.6557 24.3893 86.677 24.56C86.7623 25.1573 87.029 25.7547 87.477 26.352C87.925 26.928 88.5863 27.4187 89.461 27.824C90.3357 28.208 91.4663 28.4 92.853 28.4C94.9437 28.4 96.469 28.0267 97.429 27.28C98.389 26.512 98.869 25.488 98.869 24.208C98.869 23.3547 98.613 22.672 98.101 22.16C97.6103 21.6267 96.853 21.1573 95.829 20.752C94.805 20.3253 93.493 19.856 91.893 19.344C90.3783 18.8533 89.1303 18.352 88.149 17.84C87.1677 17.3067 86.4423 16.6667 85.973 15.92C85.525 15.1733 85.301 14.2133 85.301 13.04C85.301 11.952 85.589 10.9813 86.165 10.128C86.741 9.25333 87.573 8.56 88.661 8.048C89.7703 7.536 91.1143 7.28 92.693 7.28C93.9517 7.28 95.0503 7.45067 95.989 7.792C96.9277 8.13333 97.7063 8.592 98.325 9.168C98.9437 9.72267 99.413 10.3307 99.733 10.992C100.053 11.632 100.224 12.2613 100.245 12.88C100.245 13.0293 100.192 13.1787 100.085 13.328C99.9783 13.456 99.8077 13.52 99.573 13.52H98.933C98.8263 13.52 98.6877 13.4773 98.517 13.392C98.3677 13.3067 98.2717 13.136 98.229 12.88C98.101 11.8133 97.5357 10.9387 96.533 10.256C95.5517 9.552 94.2717 9.2 92.693 9.2C91.1143 9.2 89.8237 9.50933 88.821 10.128C87.8183 10.7467 87.317 11.7173 87.317 13.04C87.317 13.8933 87.541 14.5973 87.989 15.152C88.437 15.6853 89.141 16.1653 90.101 16.592C91.061 16.9973 92.2983 17.4453 93.813 17.936C95.413 18.448 96.7357 18.96 97.781 19.472C98.8263 19.984 99.605 20.6133 100.117 21.36C100.629 22.0853 100.885 23.0347 100.885 24.208C100.885 25.5093 100.554 26.6187 99.893 27.536C99.253 28.432 98.3357 29.1253 97.141 29.616C95.9463 30.0853 94.517 30.32 92.853 30.32ZM106.212 30C105.999 30 105.828 29.936 105.7 29.808C105.572 29.68 105.508 29.5093 105.508 29.296V8.336C105.508 8.10133 105.572 7.92 105.7 7.792C105.828 7.664 105.999 7.6 106.212 7.6H118.692C118.927 7.6 119.108 7.664 119.236 7.792C119.364 7.92 119.428 8.10133 119.428 8.336V8.816C119.428 9.02933 119.364 9.2 119.236 9.328C119.108 9.456 118.927 9.52 118.692 9.52H107.524V17.68H117.988C118.223 17.68 118.404 17.744 118.532 17.872C118.66 18 118.724 18.1813 118.724 18.416V18.896C118.724 19.1093 118.66 19.28 118.532 19.408C118.404 19.536 118.223 19.6 117.988 19.6H107.524V28.08H118.948C119.183 28.08 119.364 28.144 119.492 28.272C119.62 28.4 119.684 28.5813 119.684 28.816V29.296C119.684 29.5093 119.62 29.68 119.492 29.808C119.364 29.936 119.183 30 118.948 30H106.212ZM131.87 30.32C129.822 30.32 128.104 30.0213 126.718 29.424C125.352 28.8267 124.318 28.048 123.614 27.088C122.91 26.128 122.536 25.104 122.493 24.016C122.493 23.8453 122.558 23.696 122.686 23.568C122.814 23.4187 122.974 23.344 123.166 23.344H126.59C126.867 23.344 127.08 23.408 127.23 23.536C127.379 23.6427 127.518 23.7813 127.646 23.952C127.795 24.3147 128.03 24.6667 128.35 25.008C128.691 25.3493 129.15 25.6373 129.726 25.872C130.302 26.0853 131.016 26.192 131.87 26.192C133.256 26.192 134.291 25.968 134.974 25.52C135.678 25.072 136.03 24.464 136.03 23.696C136.03 23.1413 135.838 22.6933 135.454 22.352C135.091 22.0107 134.504 21.7013 133.694 21.424C132.904 21.1467 131.848 20.848 130.526 20.528C128.926 20.1867 127.56 19.7493 126.43 19.216C125.32 18.6613 124.478 17.9573 123.902 17.104C123.347 16.2293 123.07 15.152 123.07 13.872C123.07 12.592 123.422 11.4613 124.126 10.48C124.83 9.47733 125.822 8.69867 127.102 8.144C128.382 7.568 129.907 7.28 131.678 7.28C133.107 7.28 134.366 7.472 135.454 7.856C136.563 8.24 137.48 8.74133 138.206 9.36C138.952 9.97867 139.518 10.64 139.902 11.344C140.286 12.048 140.488 12.7307 140.51 13.392C140.51 13.5627 140.446 13.7227 140.318 13.872C140.19 14 140.03 14.064 139.838 14.064H136.254C136.04 14.064 135.848 14.0213 135.678 13.936C135.507 13.8507 135.368 13.7013 135.262 13.488C135.134 12.9333 134.75 12.4533 134.11 12.048C133.491 11.6213 132.68 11.408 131.678 11.408C130.632 11.408 129.8 11.6 129.182 11.984C128.584 12.368 128.286 12.9547 128.286 13.744C128.286 14.256 128.435 14.6933 128.734 15.056C129.054 15.3973 129.576 15.7067 130.302 15.984C131.048 16.24 132.03 16.528 133.246 16.848C135.123 17.232 136.648 17.6907 137.822 18.224C138.995 18.7573 139.859 19.4507 140.414 20.304C140.968 21.136 141.246 22.192 141.246 23.472C141.246 24.9013 140.84 26.128 140.03 27.152C139.24 28.176 138.142 28.9653 136.734 29.52C135.347 30.0533 133.726 30.32 131.87 30.32ZM145.481 30C145.246 30 145.054 29.9253 144.905 29.776C144.755 29.6267 144.681 29.4347 144.681 29.2V8.4C144.681 8.16533 144.755 7.97333 144.905 7.824C145.054 7.67467 145.246 7.6 145.481 7.6H148.393C148.713 7.6 148.947 7.67467 149.097 7.824C149.246 7.97333 149.342 8.09067 149.385 8.176L157.929 21.52V8.4C157.929 8.16533 158.003 7.97333 158.153 7.824C158.302 7.67467 158.483 7.6 158.697 7.6H161.961C162.195 7.6 162.387 7.67467 162.537 7.824C162.686 7.97333 162.761 8.16533 162.761 8.4V29.2C162.761 29.4133 162.686 29.6053 162.537 29.776C162.387 29.9253 162.195 30 161.961 30H159.017C158.697 30 158.462 29.9253 158.312 29.776C158.185 29.6053 158.089 29.488 158.025 29.424L149.513 16.496V29.2C149.513 29.4347 149.438 29.6267 149.289 29.776C149.139 29.9253 148.947 30 148.713 30H145.481ZM168.293 30C168.058 30 167.866 29.9253 167.717 29.776C167.568 29.6267 167.493 29.4347 167.493 29.2V8.4C167.493 8.16533 167.568 7.97333 167.717 7.824C167.866 7.67467 168.058 7.6 168.293 7.6H182.789C183.024 7.6 183.216 7.67467 183.365 7.824C183.514 7.97333 183.589 8.16533 183.589 8.4V10.96C183.589 11.1733 183.514 11.3547 183.365 11.504C183.216 11.6533 183.024 11.728 182.789 11.728H172.421V16.752H182.085C182.32 16.752 182.512 16.8267 182.661 16.976C182.81 17.1253 182.885 17.3173 182.885 17.552V19.92C182.885 20.1333 182.81 20.3147 182.661 20.464C182.512 20.6133 182.32 20.688 182.085 20.688H172.421V25.872H183.045C183.28 25.872 183.472 25.9467 183.621 26.096C183.77 26.2453 183.845 26.4373 183.845 26.672V29.2C183.845 29.4347 183.77 29.6267 183.621 29.776C183.472 29.9253 183.28 30 183.045 30H168.293ZM186.337 30C186.145 30 185.985 29.936 185.857 29.808C185.729 29.6587 185.665 29.4987 185.665 29.328C185.665 29.2213 185.676 29.1253 185.697 29.04L193.313 8.464C193.377 8.22933 193.505 8.02667 193.697 7.856C193.889 7.68533 194.156 7.6 194.497 7.6H198.593C198.935 7.6 199.201 7.68533 199.393 7.856C199.585 8.02667 199.713 8.22933 199.777 8.464L207.393 29.04C207.415 29.1253 207.425 29.2213 207.425 29.328C207.425 29.4987 207.361 29.6587 207.233 29.808C207.105 29.936 206.945 30 206.753 30H203.425C203.105 30 202.871 29.9253 202.721 29.776C202.572 29.6267 202.476 29.488 202.433 29.36L201.057 25.776H192.033L190.657 29.36C190.615 29.488 190.519 29.6267 190.369 29.776C190.22 29.9253 189.985 30 189.665 30H186.337ZM193.217 21.648H199.841L196.545 12.432L193.217 21.648ZM210.981 30C210.746 30 210.554 29.9253 210.405 29.776C210.255 29.6267 210.181 29.4347 210.181 29.2V8.4C210.181 8.16533 210.255 7.97333 210.405 7.824C210.554 7.67467 210.746 7.6 210.981 7.6H214.373C214.607 7.6 214.799 7.67467 214.949 7.824C215.098 7.97333 215.173 8.16533 215.173 8.4V15.696L221.765 8.208C221.85 8.08 221.989 7.952 222.181 7.824C222.394 7.67467 222.671 7.6 223.013 7.6H226.885C227.077 7.6 227.237 7.67467 227.365 7.824C227.493 7.952 227.557 8.10133 227.557 8.272C227.557 8.42133 227.514 8.54933 227.429 8.656L219.205 18.32L228.037 28.944C228.122 29.0293 228.165 29.1573 228.165 29.328C228.165 29.4987 228.101 29.6587 227.973 29.808C227.845 29.936 227.685 30 227.493 30H223.493C223.109 30 222.821 29.9147 222.629 29.744C222.437 29.5733 222.309 29.456 222.245 29.392L215.173 21.2V29.2C215.173 29.4347 215.098 29.6267 214.949 29.776C214.799 29.9253 214.607 30 214.373 30H210.981ZM231.699 30C231.465 30 231.273 29.9253 231.123 29.776C230.974 29.6267 230.899 29.4347 230.899 29.2V8.4C230.899 8.16533 230.974 7.97333 231.123 7.824C231.273 7.67467 231.465 7.6 231.699 7.6H246.195C246.43 7.6 246.622 7.67467 246.771 7.824C246.921 7.97333 246.995 8.16533 246.995 8.4V10.96C246.995 11.1733 246.921 11.3547 246.771 11.504C246.622 11.6533 246.43 11.728 246.195 11.728H235.827V16.752H245.491C245.726 16.752 245.918 16.8267 246.067 16.976C246.217 17.1253 246.291 17.3173 246.291 17.552V19.92C246.291 20.1333 246.217 20.3147 246.067 20.464C245.918 20.6133 245.726 20.688 245.491 20.688H235.827V25.872H246.451C246.686 25.872 246.878 25.9467 247.027 26.096C247.177 26.2453 247.251 26.4373 247.251 26.672V29.2C247.251 29.4347 247.177 29.6267 247.027 29.776C246.878 29.9253 246.686 30 246.451 30H231.699ZM251.856 30C251.621 30 251.429 29.9253 251.28 29.776C251.13 29.6267 251.056 29.4347 251.056 29.2V8.4C251.056 8.16533 251.13 7.97333 251.28 7.824C251.429 7.67467 251.621 7.6 251.856 7.6H260.336C263.002 7.6 265.104 8.21867 266.64 9.456C268.176 10.672 268.944 12.432 268.944 14.736C268.944 16.2933 268.57 17.5947 267.824 18.64C267.077 19.6853 266.074 20.464 264.816 20.976L269.328 28.976C269.392 29.104 269.424 29.2213 269.424 29.328C269.424 29.4987 269.36 29.6587 269.232 29.808C269.104 29.936 268.944 30 268.752 30H265.2C264.816 30 264.528 29.904 264.336 29.712C264.144 29.4987 264.005 29.3067 263.92 29.136L260.016 21.808H256.144V29.2C256.144 29.4347 256.069 29.6267 255.92 29.776C255.77 29.9253 255.578 30 255.344 30H251.856ZM256.144 17.744H260.24C261.413 17.744 262.277 17.4773 262.832 16.944C263.408 16.4107 263.696 15.664 263.696 14.704C263.696 13.744 263.418 12.9867 262.864 12.432C262.309 11.8773 261.434 11.6 260.24 11.6H256.144V17.744ZM280.932 30.32C278.884 30.32 277.167 30.0213 275.78 29.424C274.415 28.8267 273.38 28.048 272.676 27.088C271.972 26.128 271.599 25.104 271.556 24.016C271.556 23.8453 271.62 23.696 271.748 23.568C271.876 23.4187 272.036 23.344 272.228 23.344H275.652C275.929 23.344 276.143 23.408 276.292 23.536C276.441 23.6427 276.58 23.7813 276.708 23.952C276.857 24.3147 277.092 24.6667 277.412 25.008C277.753 25.3493 278.212 25.6373 278.788 25.872C279.364 26.0853 280.079 26.192 280.932 26.192C282.319 26.192 283.353 25.968 284.036 25.52C284.74 25.072 285.092 24.464 285.092 23.696C285.092 23.1413 284.9 22.6933 284.516 22.352C284.153 22.0107 283.567 21.7013 282.756 21.424C281.967 21.1467 280.911 20.848 279.588 20.528C277.988 20.1867 276.623 19.7493 275.492 19.216C274.383 18.6613 273.54 17.9573 272.964 17.104C272.409 16.2293 272.132 15.152 272.132 13.872C272.132 12.592 272.484 11.4613 273.188 10.48C273.892 9.47733 274.884 8.69867 276.164 8.144C277.444 7.568 278.969 7.28 280.74 7.28C282.169 7.28 283.428 7.472 284.516 7.856C285.625 8.24 286.543 8.74133 287.268 9.36C288.015 9.97867 288.58 10.64 288.964 11.344C289.348 12.048 289.551 12.7307 289.572 13.392C289.572 13.5627 289.508 13.7227 289.38 13.872C289.252 14 289.092 14.064 288.9 14.064H285.316C285.103 14.064 284.911 14.0213 284.74 13.936C284.569 13.8507 284.431 13.7013 284.324 13.488C284.196 12.9333 283.812 12.4533 283.172 12.048C282.553 11.6213 281.743 11.408 280.74 11.408C279.695 11.408 278.863 11.6 278.244 11.984C277.647 12.368 277.348 12.9547 277.348 13.744C277.348 14.256 277.497 14.6933 277.796 15.056C278.116 15.3973 278.639 15.7067 279.364 15.984C280.111 16.24 281.092 16.528 282.308 16.848C284.185 17.232 285.711 17.6907 286.884 18.224C288.057 18.7573 288.921 19.4507 289.476 20.304C290.031 21.136 290.308 22.192 290.308 23.472C290.308 24.9013 289.903 26.128 289.092 27.152C288.303 28.176 287.204 28.9653 285.796 29.52C284.409 30.0533 282.788 30.32 280.932 30.32Z" fill="white"/>
<path d="M4 14L5.58625 15.1602C18.3361 24.4858 35.779 24.0086 48 14V14" stroke="white" stroke-width="11"/>
</svg>
