<svg width="70" height="14" viewBox="0 0 70 14" fill="none" xmlns="http://www.w3.org/2000/svg">
<path d="M0.660156 14V0.0351562H2.4668V6.1875H10.7188V0.0351562H12.5254V14H10.7188V7.65234H2.4668V14H0.660156ZM21.7145 14H19.8395L25.7672 0.0351562H27.7691L33.7262 14H31.7242L29.9176 9.60547H25.2984L25.7965 8.14062H29.3121L26.7047 1.8125L21.7145 14ZM42.8371 0.0351562V12.5352H50.1418V14H41.0305V0.0351562H42.8371ZM59.5066 0.0351562V14H57.7V0.0351562H59.5066ZM69.3309 0.0351562L63.0418 6.62695L69.4676 14H66.9578L61.2645 7.28125V6.1875L67.0457 0.0351562H69.3309Z" fill="white"/>
</svg>
