<svg width="93" height="93" viewBox="0 0 93 93" fill="none" xmlns="http://www.w3.org/2000/svg">
<path d="M44.3611 1.30582C45.0054 -0.435414 47.4682 -0.435409 48.1125 1.30583L51.1244 9.44524C56.5938 24.2261 68.2476 35.8799 83.0284 41.3493L91.1678 44.3611C92.909 45.0054 92.909 47.4682 91.1678 48.1125L83.0284 51.1244C68.2476 56.5938 56.5938 68.2476 51.1244 83.0284L48.1125 91.1678C47.4682 92.909 45.0054 92.909 44.3611 91.1678L41.3493 83.0284C35.8799 68.2476 24.2261 56.5938 9.44524 51.1244L1.30582 48.1125C-0.435414 47.4682 -0.435409 45.0054 1.30583 44.3611L9.44524 41.3493C24.2261 35.8799 35.8799 24.2261 41.3493 9.44524L44.3611 1.30582Z" fill="white"/>
</svg>
